<svg width="600" height="400" viewBox="0 0 600 400" fill="none" xmlns="http://www.w3.org/2000/svg">
  <rect width="600" height="400" fill="#F5F7FF" />
  <rect x="200" y="100" width="200" height="200" rx="10" fill="white" stroke="#0066FF" stroke-width="2" />
  <circle cx="230" cy="130" r="20" fill="#0066FF" opacity="0.7" />
  <circle cx="370" cy="130" r="20" fill="#0066FF" opacity="0.7" />
  <circle cx="230" cy="270" r="20" fill="#0066FF" opacity="0.7" />
  <circle cx="370" cy="270" r="20" fill="#0066FF" opacity="0.7" />
  <circle cx="300" cy="200" r="30" fill="#0066FF" />
  <path d="M300 170 L300 140" stroke="#0066FF" stroke-width="2" />
  <path d="M300 230 L300 260" stroke="#0066FF" stroke-width="2" />
  <path d="M270 200 L240 200" stroke="#0066FF" stroke-width="2" />
  <path d="M330 200 L360 200" stroke="#0066FF" stroke-width="2" />
  <path d="M280 180 L250 150" stroke="#0066FF" stroke-width="2" />
  <path d="M320 180 L350 150" stroke="#0066FF" stroke-width="2" />
  <path d="M280 220 L250 250" stroke="#0066FF" stroke-width="2" />
  <path d="M320 220 L350 250" stroke="#0066FF" stroke-width="2" />
  <text x="290" y="205" font-family="Arial" font-size="12" font-weight="bold" fill="white">AI</text>
  <text x="225" y="135" font-family="Arial" font-size="10" fill="white">CRM</text>
  <text x="360" y="135" font-family="Arial" font-size="10" fill="white">Chat</text>
  <text x="220" y="275" font-family="Arial" font-size="10" fill="white">Email</text>
  <text x="355" y="275" font-family="Arial" font-size="10" fill="white">Social</text>
  <text x="180" y="350" font-family="Arial" font-size="18" font-weight="bold" fill="#0066FF">Integration Plugins</text>
</svg> 