<svg width="600" height="400" viewBox="0 0 600 400" fill="none" xmlns="http://www.w3.org/2000/svg">
  <rect width="600" height="400" fill="#F5F7FF" />
  <rect x="150" y="60" width="300" height="280" rx="10" fill="white" stroke="#0066FF" stroke-width="2" />
  <path d="M150 80 L450 80" stroke="#0066FF" stroke-width="1" />
  <path d="M150 320 L450 320" stroke="#0066FF" stroke-width="1" />
  <rect x="170" y="100" width="260" height="30" rx="4" fill="#F0F4FF" />
  <rect x="170" y="140" width="260" height="60" rx="4" fill="#F0F4FF" />
  <rect x="170" y="210" width="260" height="30" rx="4" fill="#F0F4FF" />
  <rect x="170" y="250" width="260" height="60" rx="4" fill="#F0F4FF" />
  <circle cx="200" cy="70" r="6" fill="#0066FF" />
  <circle cx="220" cy="70" r="6" fill="#0066FF" />
  <circle cx="240" cy="70" r="6" fill="#0066FF" />
  <rect x="380" y="67" width="50" height="6" rx="3" fill="#0066FF" />
  <circle cx="300" cy="330" r="6" fill="#0066FF" />
  <text x="180" y="120" font-family="Arial" font-size="14" fill="#333333">Question: How do I reset my password?</text>
  <text x="180" y="160" font-family="Arial" font-size="12" fill="#555555">Answer: To reset your password, click on the "Forgot Password" link on the login page and follow the instructions sent to your email.</text>
  <text x="180" y="230" font-family="Arial" font-size="14" fill="#333333">Question: How do I contact support?</text>
  <text x="180" y="270" font-family="Arial" font-size="12" fill="#555555">Answer: You can contact our support team via email at support@example.com or by calling our helpline at +1-234-567-8900 during business hours.</text>
  <text x="180" y="350" font-family="Arial" font-size="18" font-weight="bold" fill="#0066FF">Knowledge Base</text>
</svg> 