<svg xmlns="http://www.w3.org/2000/svg" viewBox="0 0 24 24" fill="#FF7A59">
  <path d="M5.512 0c-.096 0-.192 0-.288.024-.528.072-1.008.36-1.296.84-.288.456-.36 1.032-.216 1.56.12.792.72 1.464 1.512 1.656.792.168 1.584-.192 2.04-.84.456-.672.456-1.56 0-2.208C6.904.48 6.232.048 5.512 0zm13.176 1.044c-.408 0-.816.144-1.128.408-.624.552-.744 1.464-.288 2.136.456.672 1.368.864 2.064.384.672-.456.864-1.368.384-2.064-.288-.552-.864-.864-1.464-.864h.432zM8.664 5.772c-1.008.072-1.8.936-1.8 1.944v4.56H4.888c-1.056 0-1.944.864-1.944 1.944s.864 1.944 1.944 1.944h1.968v4.56c-.024 1.008.768 1.872 1.776 1.944 1.056 0 1.944-.864 1.944-1.944v-4.56h4.104c1.056 0 1.944-.864 1.944-1.944s-.864-1.944-1.944-1.944h-4.104v-4.56c.072-1.08-.768-1.968-1.872-1.944zM1.408 8.88c-.36-.024-.72.096-1.008.336-.552.504-.6 1.344-.12 1.92.504.552 1.344.624 1.92.12.552-.504.624-1.344.12-1.92-.216-.288-.552-.456-.912-.456zm21.384.504c-.408 0-.816.144-1.128.408-.624.552-.744 1.464-.288 2.136.456.672 1.368.864 2.064.384.672-.456.864-1.368.384-2.064-.288-.528-.84-.864-1.464-.864h.432zm-3.48 8.52a1.78 1.78 0 00-.792.192c-.6.336-.912 1.008-.792 1.68s.696 1.2 1.392 1.248c.672.048 1.344-.408 1.56-1.056.24-.648 0-1.392-.576-1.776-.24-.192-.504-.288-.792-.288zm-14.832.168c-.384 0-.768.168-1.032.48-.528.624-.432 1.56.192 2.088.624.528 1.56.432 2.088-.192.528-.624.432-1.56-.192-2.088-.312-.264-.672-.384-1.056-.288zm11.112 3.72c-.96-.048-1.8.672-1.896 1.632-.096.96.624 1.824 1.584 1.944.984.096 1.824-.624 1.944-1.584.096-.984-.624-1.848-1.584-1.944 0-.048-.024-.048-.048-.048z"/>
</svg> 