<svg xmlns="http://www.w3.org/2000/svg" viewBox="0 0 24 24" fill="#00A1E0">
  <path d="M15.027 16.8c.3 0 .573.06.847.18.33.12.6.3.87.54.18.18.39.48.51.78.12.3.18.63.18.96 0 .33-.06.66-.18.96-.12.3-.27.57-.51.78-.24.21-.54.39-.87.51-.27.12-.57.18-.847.18-.33 0-.63-.06-.87-.18-.33-.12-.6-.3-.84-.51-.21-.21-.42-.48-.54-.78-.09-.3-.15-.63-.15-.96 0-.33.06-.66.15-.96.12-.3.33-.57.54-.78.24-.24.51-.42.84-.54.27-.12.54-.18.87-.18zm-10.92-3.78c.3 0 .573.06.847.18.33.12.6.3.87.54.18.18.39.48.51.78.12.3.18.63.18.96 0 .33-.06.66-.18.96-.12.3-.27.57-.51.78-.24.21-.54.39-.87.51-.27.12-.57.18-.847.18-.33 0-.63-.06-.87-.18-.33-.12-.6-.3-.84-.51-.21-.21-.42-.48-.54-.78-.09-.3-.15-.63-.15-.96 0-.33.06-.66.15-.96.12-.3.33-.57.54-.78.24-.24.51-.42.84-.54.27-.12.54-.18.87-.18zm5.52-3.75c.3 0 .573.06.847.18.33.12.6.3.87.54.18.18.39.48.51.78.12.3.18.63.18.96 0 .33-.06.66-.18.96-.12.3-.27.57-.51.78-.24.21-.54.39-.87.51-.27.12-.57.18-.847.18-.33 0-.63-.06-.87-.18-.33-.12-.6-.3-.84-.51-.21-.21-.42-.48-.54-.78-.09-.3-.15-.63-.15-.96 0-.33.06-.66.15-.96.12-.3.33-.57.54-.78.24-.24.51-.42.84-.54.27-.12.54-.18.87-.18zm5.49 0c.3 0 .573.06.847.18.33.12.6.3.87.54.18.18.39.48.51.78.12.3.18.63.18.96 0 .33-.06.66-.18.96-.12.3-.27.57-.51.78-.24.21-.54.39-.87.51-.27.12-.57.18-.847.18-.33 0-.63-.06-.87-.18-.33-.12-.6-.3-.84-.51-.21-.21-.42-.48-.54-.78-.09-.3-.15-.63-.15-.96 0-.33.06-.66.15-.96.12-.3.33-.57.54-.78.24-.24.51-.42.84-.54.27-.12.54-.18.87-.18zm5.37 3.75c.3 0 .573.06.847.18.33.12.6.3.87.54.18.18.39.48.51.78.12.3.18.63.18.96 0 .33-.06.66-.18.96-.12.3-.27.57-.51.78-.24.21-.54.39-.87.51-.27.12-.57.18-.847.18-.33 0-.63-.06-.87-.18-.33-.12-.6-.3-.84-.51-.21-.21-.42-.48-.54-.78-.09-.3-.15-.63-.15-.96 0-.33.06-.66.15-.96.12-.3.33-.57.54-.78.24-.24.51-.42.84-.54.27-.12.54-.18.87-.18zm-10.89-3.75c.3 0 .573.06.847.18.33.12.6.3.87.54.18.18.39.48.51.78.12.3.18.63.18.96 0 .33-.06.66-.18.96-.12.3-.27.57-.51.78-.24.21-.54.39-.87.51-.27.12-.57.18-.847.18-.33 0-.63-.06-.87-.18-.33-.12-.6-.3-.84-.51-.21-.21-.42-.48-.54-.78-.09-.3-.15-.63-.15-.96 0-.33.06-.66.15-.96.12-.3.33-.57.54-.78.24-.24.51-.42.84-.54.27-.12.54-.18.87-.18z"/>
</svg> 