<svg xmlns="http://www.w3.org/2000/svg" viewBox="0 0 24 24" fill="#FF4A00">
  <path d="M12 0C5.388 0 0 5.388 0 12s5.388 12 12 12 12-5.388 12-12S18.612 0 12 0zm0 3.6c.992 0 1.795.803 1.795 1.795 0 .992-.803 1.795-1.795 1.795a1.795 1.795 0 0 1 0-3.59zM6.75 4.989l4.326 4.326c.223.223.223.584 0 .807s-.584.223-.807 0L5.942 5.796a.57.57 0 0 1 0-.807.57.57 0 0 1 .807 0zm2.452 7.216c.416 0 .753.338.753.753 0 .416-.337.753-.753.753H4.8a.753.753 0 0 1 0-1.506h4.402zm1.838 3.802c.223-.223.584-.223.807 0s.223.584 0 .807L7.06 21.14a.57.57 0 0 1-.807 0 .57.57 0 0 1 0-.807l4.788-4.326zm5.522-3.802a.753.753 0 0 1 0 1.506h-4.402a.753.753 0 0 1 0-1.506h4.402zm3.638-7.216a.57.57 0 0 1 0 .807l-4.326 4.326c-.223.223-.584.223-.807 0s-.223-.584 0-.807l4.326-4.326a.57.57 0 0 1 .807 0zm-5.16 10.15c.992 0 1.795.803 1.795 1.795 0 .992-.803 1.795-1.795 1.795a1.795 1.795 0 0 1 0-3.59z"/>
</svg> 